<?xml version="1.0" encoding="UTF-8"?>
<svg xmlns="http://www.w3.org/2000/svg" xmlns:xlink="http://www.w3.org/1999/xlink" width="99pt" height="40pt" viewBox="0 0 99 40" version="1.1">
<g id="surface1">
<path style=" stroke:none;fill-rule:nonzero;fill:rgb(100%,100%,100%);fill-opacity:1;" d="M 2.292969 10.0625 L 8.027344 10.0625 L 8.027344 28.140625 L 2.292969 28.140625 Z M 2.292969 10.0625 "/>
<path style=" stroke:none;fill-rule:nonzero;fill:rgb(100%,100%,100%);fill-opacity:1;" d="M 2.292969 2.230469 L 21.6875 2.230469 L 21.6875 7.15625 L 2.292969 7.15625 Z M 2.292969 2.230469 "/>
<path style=" stroke:none;fill-rule:nonzero;fill:rgb(100%,100%,100%);fill-opacity:1;" d="M 30.59375 28.140625 L 24.863281 28.140625 L 24.863281 26.707031 C 23.464844 27.960938 21.605469 28.675781 19.273438 28.675781 C 14.507812 28.675781 10.496094 24.84375 10.496094 19.144531 C 10.496094 13.484375 14.507812 9.617188 19.273438 9.617188 C 21.601562 9.617188 23.464844 10.332031 24.863281 11.585938 L 24.863281 2.230469 L 30.59375 2.230469 Z M 24.863281 19.144531 C 24.863281 16.386719 22.785156 14.488281 20.453125 14.488281 C 17.945312 14.488281 16.117188 16.386719 16.117188 19.144531 C 16.117188 21.941406 17.945312 23.808594 20.453125 23.808594 C 22.785156 23.808594 24.863281 21.941406 24.863281 19.144531 "/>
<path style=" stroke:none;fill-rule:nonzero;fill:rgb(100%,100%,100%);fill-opacity:1;" d="M 52.011719 20.617188 L 38.824219 20.617188 C 39.292969 22.765625 40.757812 24.09375 42.695312 24.09375 C 44.019531 24.09375 45.5625 23.769531 46.527344 22.015625 L 51.617188 23.050781 C 50.074219 26.851562 46.816406 28.679688 42.695312 28.679688 C 37.5 28.679688 33.199219 24.84375 33.199219 19.144531 C 33.199219 13.484375 37.5 9.617188 42.730469 9.617188 C 47.820312 9.617188 51.90625 13.269531 52.011719 19.144531 Z M 38.933594 17.105469 L 46.347656 17.105469 C 45.8125 15.167969 44.378906 14.273438 42.730469 14.273438 C 41.121094 14.273438 39.472656 15.277344 38.933594 17.105469 "/>
<path style=" stroke:none;fill-rule:nonzero;fill:rgb(100%,100%,100%);fill-opacity:1;" d="M 74.59375 28.5 C 74.59375 34.050781 69.863281 37.097656 64.019531 37.097656 C 59.902344 37.097656 56.785156 35.664062 55.027344 32.765625 L 59.792969 29.824219 C 61.117188 31.4375 62.160156 32.046875 64.023438 32.046875 C 66.601562 32.046875 68.859375 30.753906 68.859375 27.925781 L 68.859375 26.707031 C 67.460938 27.960938 65.597656 28.675781 63.269531 28.675781 C 58.503906 28.675781 54.492188 24.84375 54.492188 19.144531 C 54.492188 13.484375 58.503906 9.617188 63.269531 9.617188 C 65.597656 9.617188 67.460938 10.332031 68.859375 11.585938 L 68.859375 10.15625 L 74.59375 10.15625 Z M 68.859375 19.144531 C 68.859375 16.386719 66.78125 14.488281 64.453125 14.488281 C 61.945312 14.488281 60.117188 16.386719 60.117188 19.144531 C 60.117188 21.941406 61.941406 23.808594 64.453125 23.808594 C 66.78125 23.808594 68.859375 21.941406 68.859375 19.144531 "/>
<path style=" stroke:none;fill-rule:nonzero;fill:rgb(100%,100%,100%);fill-opacity:1;" d="M 96.78125 19.144531 C 96.78125 24.84375 92.269531 28.644531 86.929688 28.644531 C 81.484375 28.644531 76.96875 24.84375 76.96875 19.144531 C 76.96875 13.484375 81.484375 9.6875 86.929688 9.6875 C 92.269531 9.6875 96.78125 13.484375 96.78125 19.144531 M 91.265625 19.144531 C 91.265625 16.351562 89.148438 14.488281 86.929688 14.488281 C 84.597656 14.488281 82.484375 16.351562 82.484375 19.144531 C 82.484375 21.980469 84.597656 23.808594 86.929688 23.808594 C 89.148438 23.808594 91.265625 21.976562 91.265625 19.144531 "/>
</g>
</svg>
